#!OML:ASF H:\Male1\Project 1\Capture day 1\Session 1\Male1.ASF
:FULLY-SPECIFIED
:DEGREES
706
root 3.14325 15.5224 0.60208 170.13 -56.7773 -171.689
lowerback 5.90497 0.948216 -2.07595
upperback 3.19304 1.05521 0.464681
thorax -0.0710832 0.454926 1.5798
lowerneck -6.08962 -4.50471 1.97036
upperneck 3.98964 -6.2917 1.7456
head 2.29637 -3.05782 -0.0217786
rclavicle -7.53394e-014 2.22639e-014
rhumerus -32.869 12.5105 -94.4193
rradius 35.2935
rwrist -19.6667
rhand -17.3662 1.16313
rfingers 7.12502
rthumb 8.88198 -28.6299
lclavicle -7.53394e-014 2.22639e-014
lhumerus -27.5839 0.106267 86.1095
lradius 23.1411
lwrist -7.85937
lhand -17.3738 12.1441
lfingers 7.12502
lthumb 8.87467 41.9374
rfemur -3.06589 9.75255 26.9097
rtibia 22.0708
rfoot -25.5253 -29.4499
rtoes -7.22243
lfemur -1.48759 -14.8398 -20.7568
ltibia 23.5489
lfoot -26.1224 27.8077
ltoes 7.34588
707
root 3.13117 15.5095 0.604873 170.659 -56.3593 -172.26
lowerback 5.71268 1.03206 -2.18428
upperback 3.10429 1.16978 0.355432
thorax -0.0603088 0.514756 1.52359
lowerneck -6.04971 -4.58798 1.98136
upperneck 4.07314 -6.40583 1.75272
head 2.31651 -3.11339 -0.0259052
rclavicle -5.50634e-014 1.66979e-014
rhumerus -33.3203 12.1603 -94.4185
rradius 35.1576
rwrist -19.6575
rhand -17.2416 1.27304
rfingers 7.12502
rthumb 9.00219 -28.5149
lclavicle -5.50634e-014 1.66979e-014
lhumerus -27.1235 -1.106 86.7356
lradius 23.7271
lwrist -6.90201
lhand -16.8862 12.2277
lfingers 7.12502
lthumb 9.34516 42.0006
rfemur -2.50762 10.9942 26.7928
rtibia 21.0683
rfoot -26.0187 -30.1088
rtoes -6.17348
lfemur -1.57843 -14.4574 -21.0594
ltibia 23.8245
lfoot -26.3458 27.8362
ltoes 6.72233
708
root 3.12443 15.4997 0.609025 170.865 -55.8842 -172.445
lowerback 5.63057 1.09777 -2.05685
upperback 2.99278 1.26916 0.296779
thorax -0.129757 0.570182 1.38635
lowerneck -5.91353 -4.67089 1.91095
upperneck 4.05442 -6.51683 1.90593
head 2.29345 -3.16723 0.0339137
rclavicle 1.61016e-014 2.62396e-014
rhumerus -33.6755 11.9012 -94.4596
rradius 34.7469
rwrist -19.5017
rhand -17.3125 1.5752
rfingers 7.12502
rthumb 8.93379 -28.2157
lclavicle 1.61016e-014 2.62396e-014
lhumerus -26.691 -2.10176 87.2206
lradius 24.3555
lwrist -6.01854
lhand -16.5068 12.163
lfingers 7.12502
lthumb 9.71125 41.9191
rfemur -1.92958 12.6512 26.9844
rtibia 20.2125
rfoot -26.8589 -30.7478
rtoes -3.6567
lfemur -1.69135 -14.1993 -21.1299
ltibia 24.068
lfoot -26.3316 28.1012
ltoes 6.54571
709
root 3.11833 15.4971 0.615105 171 -55.4514 -172.556
lowerback 5.58309 1.13699 -1.85256
upperback 2.90584 1.33504 0.25454
thorax -0.189983 0.608399 1.22455
lowerneck -5.75087 -4.74243 1.75741
upperneck 3.96943 -6.60817 2.13725
head 2.25002 -3.21186 0.134518
rclavicle -1.5704e-014 7.95139e-015
rhumerus -33.8978 11.732 -94.4887
rradius 34.1308
rwrist -19.347
rhand -17.2946 1.73235
rfingers 7.12502
rthumb 8.95105 -28.0578
lclavicle -1.5704e-014 7.95139e-015
lhumerus -26.3288 -3.16971 87.7372
lradius 24.9878
lwrist -5.46799
lhand -17.125 11.8201
lfingers 7.12502
lthumb 9.11472 41.6031
rfemur -1.35417 14.0392 27.1579
rtibia 19.4466
rfoot -27.9268 -31.1376
rtoes -1.08648
lfemur -1.84173 -14.1888 -21.2102
ltibia 24.3458
lfoot -26.0957 28.7077
ltoes 6.98755
710
root 3.11129 15.4954 0.622215 171.06 -55.083 -172.669
lowerback 5.57339 1.1495 -1.60372
upperback 2.88055 1.36414 0.200933
thorax -0.204799 0.626389 1.02829
lowerneck -5.62307 -4.79744 1.67328
upperneck 3.86646 -6.6771 2.27061
head 2.20113 -3.24697 0.192973
rclavicle -5.79954e-014 1.51076e-014
rhumerus -33.9166 11.3893 -94.4204
rradius 33.3319
rwrist -18.9279
rhand -16.7967 1.35905
rfingers 7.12502
rthumb 9.43149 -28.4099
lclavicle -5.79954e-014 1.51076e-014
lhumerus -26.0237 -4.10898 88.2053
lradius 25.7508
lwrist -4.9241
lhand -17.8547 11.8455
lfingers 7.12502
lthumb 8.41059 41.658
rfemur -0.760923 15.2181 27.2746
rtibia 18.7554
rfoot -29.1308 -31.3076
rtoes 0.53121
lfemur -1.85964 -14.4579 -21.3918
ltibia 24.6303
lfoot -26.5923 29.134
ltoes 8.51234
711
root 3.10537 15.4929 0.62792 170.79 -54.6521 -172.342
lowerback 5.53296 1.15676 -1.12512
upperback 2.84566 1.39924 0.236901
thorax -0.209018 0.6493 0.795382
lowerneck -5.60973 -4.82966 1.70953
upperneck 3.90403 -6.71849 2.18623
head 2.20653 -3.26866 0.158912
rclavicle 1.34677e-014 -1.19271e-014
rhumerus -33.8654 11.0264 -94.273
rradius 32.4339
rwrist -18.3731
rhand -16.461 0.899503
rfingers 7.12502
rthumb 9.75538 -28.8546
lclavicle 1.34677e-014 -1.19271e-014
lhumerus -25.7748 -4.69511 88.5768
lradius 26.5642
lwrist -4.18233
lhand -18.3475 11.8661
lfingers 7.12502
lthumb 7.93491 41.6972
rfemur -0.348787 16.402 27.6521
rtibia 18.259
rfoot -30.6464 -31.2625
rtoes 2.59265
lfemur -1.80717 -14.7262 -21.2869
ltibia 24.8009
lfoot -27.7025 29.1627
ltoes 10.9865
712
root 3.10072 15.4922 0.630136 170.692 -54.2266 -172.049
lowerback 5.34018 1.17252 -0.771523
upperback 2.78012 1.44351 0.324537
thorax -0.163811 0.67615 0.687731
lowerneck -5.74403 -4.82774 1.79822
upperneck 4.09965 -6.7193 1.98283
head 2.28453 -3.26851 0.0734288
rclavicle -3.49364e-014 6.36111e-015
rhumerus -33.7872 10.731 -94.0325
rradius 31.5081
rwrist -17.7671
rhand -16.318 0.752946
rfingers 7.12502
rthumb 9.89341 -28.9946
lclavicle -3.49364e-014 6.36111e-015
lhumerus -25.5453 -5.12394 88.9787
lradius 27.2851
lwrist -3.40017
lhand -19.1269 11.4849
lfingers 7.12502
lthumb 7.18262 41.3431
rfemur -0.266874 17.0034 27.8745
rtibia 17.9363
rfoot -31.0754 -31.2353
rtoes 2.38873
lfemur -1.86212 -14.8854 -21.1223
ltibia 24.8576
lfoot -28.727 29.0492
ltoes 12.3867
